<?xml version="1.0" encoding="UTF-8" standalone="no"?><!DOCTYPE svg PUBLIC "-//W3C//DTD SVG 1.1//EN" "http://www.w3.org/Graphics/SVG/1.1/DTD/svg11.dtd"><svg width="100%" height="100%" viewBox="0 0 1000 1000" version="1.1" xmlns="http://www.w3.org/2000/svg" xmlns:xlink="http://www.w3.org/1999/xlink" xml:space="preserve" xmlns:serif="http://www.serif.com/" style="fill-rule:evenodd;clip-rule:evenodd;stroke-linejoin:round;stroke-miterlimit:1.41421;"><g><circle cx="500" cy="500" r="500" style="fill:url(#_Linear1);"/><path d="M572.628,392.981l0,415.952c0,28.819 -6.917,50.61 -20.751,65.371c-13.834,14.761 -31.392,22.142 -52.675,22.142c-21.283,0 -38.576,-7.556 -51.878,-22.669c-13.302,-15.113 -19.952,-36.728 -19.952,-64.844l0,-411.735c0,-28.468 6.65,-49.907 19.952,-64.317c13.302,-14.41 30.595,-21.615 51.878,-21.615c21.283,0 38.841,7.205 52.675,21.615c13.834,14.41 20.751,34.443 20.751,60.1Zm-71.83,-148.668c-20.219,0 -37.511,-6.15 -51.877,-18.451c-14.366,-12.301 -21.549,-29.699 -21.549,-52.192c0,-20.385 7.36,-37.167 22.081,-50.346c14.72,-13.18 31.836,-19.77 51.345,-19.77c18.8,0 35.472,5.975 50.015,17.924c14.544,11.95 21.815,29.347 21.815,52.192c0,22.142 -7.094,39.451 -21.283,51.928c-14.188,12.477 -31.037,18.715 -50.547,18.715Z" style="fill:#fff;fill-rule:nonzero;"/></g><defs><linearGradient id="_Linear1" x1="0" y1="0" x2="1" y2="0" gradientUnits="userSpaceOnUse" gradientTransform="matrix(1000,0,0,939.948,2.27374e-13,500)"><stop offset="0" style="stop-color:#0e8af7;stop-opacity:1"/><stop offset="0.54" style="stop-color:#336ae2;stop-opacity:1"/><stop offset="1" style="stop-color:#415dda;stop-opacity:1"/></linearGradient></defs></svg>