<?xml version="1.0" encoding="utf-8"?>
<!-- Generator: Adobe Illustrator 16.0.0, SVG Export Plug-In . SVG Version: 6.00 Build 0)  -->
<!DOCTYPE svg PUBLIC "-//W3C//DTD SVG 1.1//EN" "http://www.w3.org/Graphics/SVG/1.1/DTD/svg11.dtd">
<svg version="1.1"
	 id="svg5232" xmlns:svg="http://www.w3.org/2000/svg" xmlns:cc="http://creativecommons.org/ns#" xmlns:dc="http://purl.org/dc/elements/1.1/" xmlns:rdf="http://www.w3.org/1999/02/22-rdf-syntax-ns#"
	 xmlns="http://www.w3.org/2000/svg" xmlns:xlink="http://www.w3.org/1999/xlink" x="0px" y="0px" width="14px" height="20px"
	 viewBox="0 0 14 20" enable-background="new 0 0 14 20" xml:space="preserve">
<g id="layer1" transform="translate(0,-1032.3622)">
	<path id="path4173" fill="#DC0808" d="M1.482,1035.96c1.39-2.994,5.358-3.533,8.156-2.385c2.054,0.57,3.962,2.839,2.867,4.987
		c-1.077,2.523-4.105,3.586-4.876,6.3c-0.303,1.779-2.782,3.746-3.701,1.279c-0.698-2.049,1.271-3.603,2.483-4.954
		c1.057-1.078,2.137-3.071,0.837-4.359c-1.671-1.362-3.4,0.822-5.169,0.205c-0.415-0.126-0.673-0.556-0.646-0.975"/>
	<path id="path4200" fill="#DC0808" d="M4.125,1050.142c-0.136-1.349,1.896-1.976,2.896-1.492c1.078,0.763,1.076,2.844-0.398,3.156
		C5.168,1052.396,4.313,1051.563,4.125,1050.142L4.125,1050.142z"/>
</g>
</svg>
